<svg width="320" height="320" viewBox="0 0 320 320" fill="none" xmlns="http://www.w3.org/2000/svg">
<rect width="320" height="320" fill="white"/>
<mask id="mask0" mask-type="alpha" maskUnits="userSpaceOnUse" x="28" y="28" width="264" height="264">
<path d="M160 292C232.902 292 292 232.902 292 160C292 87.0984 232.902 28 160 28C87.0984 28 28 87.0984 28 160C28 232.902 87.0984 292 160 292Z" fill="#C4C4C4"/>
</mask>
<g mask="url(#mask0)">
<path d="M72.0092 84.5714L300.64 216.571L207.228 378.365L169.913 356.821C169.913 356.821 145.169 347.124 132.597 335.277C120.026 323.429 104.312 317.143 94.0974 313.049C83.8833 308.954 70.7543 303.594 55.5976 288.857C40.4409 274.12 32.026 263.714 22.5974 261.751C13.1688 259.787 -21.4023 246.365 -21.4023 246.365L72.0092 84.5714Z" fill="white"/>
<path d="M121.412 -28.5714L350.042 103.429L256.631 265.222L219.316 243.678C219.316 243.678 194.572 233.982 182 222.134C169.429 210.286 153.715 204 143.5 199.906C133.286 195.812 120.157 190.451 105 175.714C89.8437 160.977 81.4288 150.571 72.0002 148.608C62.5716 146.644 28.0005 133.222 28.0005 133.222L121.412 -28.5714Z" fill="#33A9FF"/>
<path fill-rule="evenodd" clip-rule="evenodd" d="M68.32 65.5766C41.44 90.6277 28 122.423 28 160.964C28 186.657 34.72 209.781 48.16 230.336C61.92 250.57 78.7201 265.985 98.5603 276.584C118.4 286.861 138.88 292 160 292C181.12 292 201.44 287.183 220.96 277.547C240.8 267.591 257.6 252.336 271.36 231.781C285.12 210.905 292 187.139 292 160.481C292 121.942 278.72 90.3066 252.16 65.5766C225.6 40.5255 195.04 28 160.48 28C125.92 28 95.1999 40.5255 68.32 65.5766ZM160 266.857C219.015 266.857 266.857 219.015 266.857 160C266.857 100.985 219.015 53.1429 160 53.1429C100.985 53.1429 53.1429 100.985 53.1429 160C53.1429 219.015 100.985 266.857 160 266.857Z" fill="#33A9FF"/>
<g filter="url(#filter0_i)">
<path d="M178.857 191.429C210.101 191.429 235.429 166.101 235.429 134.857C235.429 103.614 210.101 78.2857 178.857 78.2857C147.614 78.2857 122.286 103.614 122.286 134.857C122.286 166.101 147.614 191.429 178.857 191.429Z" fill="white"/>
</g>
<path d="M103.428 147.429C106.9 147.429 109.714 144.614 109.714 141.143C109.714 137.671 106.9 134.857 103.428 134.857C99.9568 134.857 97.1426 137.671 97.1426 141.143C97.1426 144.614 99.9568 147.429 103.428 147.429Z" fill="white"/>
<path d="M98.7141 125.429C99.5819 125.429 100.285 124.725 100.285 123.857C100.285 122.989 99.5819 122.286 98.7141 122.286C97.8462 122.286 97.1426 122.989 97.1426 123.857C97.1426 124.725 97.8462 125.429 98.7141 125.429Z" fill="white"/>
<path d="M73.5714 131.714C74.4393 131.714 75.1429 131.011 75.1429 130.143C75.1429 129.275 74.4393 128.571 73.5714 128.571C72.7036 128.571 72 129.275 72 130.143C72 131.011 72.7036 131.714 73.5714 131.714Z" fill="white"/>
<path d="M87.7144 134.857C89.4502 134.857 90.8573 133.45 90.8573 131.714C90.8573 129.979 89.4502 128.571 87.7144 128.571C85.9787 128.571 84.5716 129.979 84.5716 131.714C84.5716 133.45 85.9787 134.857 87.7144 134.857Z" fill="white"/>
</g>
<defs>
<filter id="filter0_i" x="122.286" y="78.2857" width="113.143" height="113.143" filterUnits="userSpaceOnUse" color-interpolation-filters="sRGB">
<feFlood flood-opacity="0" result="BackgroundImageFix"/>
<feBlend mode="normal" in="SourceGraphic" in2="BackgroundImageFix" result="shape"/>
<feColorMatrix in="SourceAlpha" type="matrix" values="0 0 0 0 0 0 0 0 0 0 0 0 0 0 0 0 0 0 127 0" result="hardAlpha"/>
<feOffset dx="-8" dy="-8"/>
<feComposite in2="hardAlpha" operator="arithmetic" k2="-1" k3="1"/>
<feColorMatrix type="matrix" values="0 0 0 0 0.666667 0 0 0 0 0.756863 0 0 0 0 0.898039 0 0 0 1 0"/>
<feBlend mode="normal" in2="shape" result="effect1_innerShadow"/>
</filter>
</defs>
</svg>
