<?xml version="1.0" encoding="utf-8"?>
<!-- Generator: Adobe Illustrator 23.1.1, SVG Export Plug-In . SVG Version: 6.00 Build 0)  -->
<svg version="1.1" id="Capa_1" xmlns="http://www.w3.org/2000/svg" xmlns:xlink="http://www.w3.org/1999/xlink" x="0px" y="0px"
	 viewBox="0 0 640 189" style="enable-background:new 0 0 640 189;" xml:space="preserve">
<style type="text/css">
	.st0{fill:#162A46;}
	.st1{fill:#1B314F;}
	.st2{fill:#C4C4C4;filter:url(#Adobe_OpacityMaskFilter);}
	.st3{mask:url(#mask0_1_);}
	.st4{fill:#FFFFFF;}
	.st5{fill:#33A9FF;}
	.st6{fill-rule:evenodd;clip-rule:evenodd;fill:#33A9FF;}
</style>
<path class="st0" d="M187.5,103.7c-1.7-2.1-2.6-4-2.6-5.7c0-1.7,1.4-4,4.3-6.8c1.7-1.6,3.4-2.4,5.3-2.4s4.4,1.7,7.8,5
	c0.9,1.1,2.3,2.2,4,3.3c1.7,1,3.3,1.5,4.8,1.5c6.2,0,9.3-2.5,9.3-7.6c0-1.5-0.9-2.8-2.6-3.8c-1.7-1.1-3.8-1.8-6.3-2.3
	c-2.5-0.5-5.2-1.2-8.2-2.2c-2.9-1.1-5.6-2.3-8.2-3.7c-2.5-1.4-4.6-3.6-6.4-6.6c-1.7-3.1-2.5-6.7-2.5-11c0-5.8,2.2-10.9,6.5-15.2
	c4.4-4.4,10.3-6.6,17.8-6.6c4,0,7.6,0.5,10.9,1.6c3.3,1,5.6,2,6.9,3.1l2.5,1.9c2.1,1.9,3.1,3.6,3.1,4.9c0,1.3-0.8,3.2-2.4,5.5
	c-2.3,3.3-4.6,5-7,5c-1.4,0-3.1-0.7-5.2-2c-0.2-0.1-0.6-0.5-1.2-1c-0.5-0.5-1-1-1.5-1.3c-1.4-0.9-3.2-1.3-5.4-1.3
	c-2.1,0-3.9,0.5-5.4,1.6c-1.4,1-2.1,2.4-2.1,4.3c0,1.8,0.8,3.3,2.5,4.4c1.7,1.1,3.8,1.9,6.4,2.3c2.5,0.4,5.3,1,8.3,1.9
	c3,0.8,5.7,1.8,8.3,3c2.5,1.2,4.6,3.3,6.3,6.3c1.7,2.9,2.6,6.5,2.6,10.9c0,4.3-0.9,8.1-2.6,11.4c-1.7,3.3-4,5.8-6.8,7.6
	c-5.4,3.5-11.1,5.3-17.2,5.3c-3.1,0-6.1-0.4-8.9-1.1c-2.8-0.8-5-1.8-6.8-2.9c-3.5-2.1-6-4.2-7.4-6.2L187.5,103.7z"/>
<path class="st0" d="M273.6,61.5c6.6,0,12.1,2.6,16.5,7.7c4.4,5,6.7,11.2,6.7,18.5v17.5c0,1.5-0.1,2.7-0.2,3.5
	c-0.1,0.7-0.3,1.6-0.8,2.5c-0.9,1.8-3.5,2.7-7.8,2.7c-4.7,0-7.4-1.2-8.2-3.7c-0.4-1.1-0.6-2.8-0.6-5.1V87.5c0-2.7-0.8-4.8-2.4-6.4
	c-1.5-1.5-3.6-2.3-6.3-2.3c-2.6,0-4.7,0.8-6.4,2.4c-1.6,1.6-2.4,3.7-2.4,6.3v17.6c0,1.5-0.1,2.7-0.2,3.5c-0.1,0.7-0.4,1.6-0.9,2.5
	c-0.9,1.8-3.4,2.7-7.7,2.7c-4.2,0-6.7-0.9-7.7-2.7c-0.5-1-0.8-1.9-0.9-2.6c-0.1-0.8-0.1-2-0.1-3.5V69.8c0-1.5,0-2.6,0.1-3.3
	c0.1-0.8,0.5-1.7,1-2.6c0.9-1.7,3.5-2.5,7.7-2.5c4,0,6.5,0.8,7.5,2.3c0.7,1.1,1,2.5,1,4.1c0.3-0.5,0.9-1.1,1.8-2
	c0.9-0.9,1.8-1.6,2.7-2.1C268.4,62.2,270.9,61.5,273.6,61.5z"/>
<path class="st0" d="M303.3,87.7c0-8,2.8-14.5,8.4-19.7c5.6-5.2,11.9-7.8,19.1-7.8c7.2,0,13.5,2.6,19,7.8c5.5,5.1,8.3,11.6,8.3,19.6
	c0,5.5-1.4,10.4-4.3,14.7c-2.9,4.2-6.3,7.4-10.5,9.5c-4,2-8.3,3-12.6,3s-8.6-1.1-12.7-3.2c-4.1-2.2-7.6-5.4-10.5-9.6
	C304.7,97.8,303.3,93.1,303.3,87.7z M324.1,94.9c2.1,1.6,4.3,2.4,6.5,2.4c2.2,0,4.4-0.8,6.6-2.5c2.2-1.7,3.3-4.1,3.3-7.4
	c0-3.3-1-5.7-3.1-7.3c-2.1-1.6-4.3-2.4-6.7-2.4c-2.4,0-4.6,0.8-6.7,2.5c-2.1,1.7-3.1,4.1-3.1,7.4C321,90.8,322,93.3,324.1,94.9z"/>
<path class="st0" d="M429.7,61.9c4.2,1.9,6.4,4.1,6.4,6.9c0,1.1-0.5,3-1.6,5.5c-1.1,2.5-2,4.6-2.7,6.5l-11,26.7c-1,2.9-2.7,5-5,6.2
	c-1,0.5-2.3,0.7-3.8,0.7s-3-0.6-4.5-1.7c-1.4-1.2-2.3-2.4-2.8-3.6l-0.8-1.7c-0.5-1.3-2.5-6.5-5.9-15.5c-0.7,1.6-1.7,4.2-3,7.9
	c-1.3,3.6-2.1,5.8-2.5,6.8c-0.3,0.9-0.6,1.5-0.7,1.8c-0.1,0.3-0.3,0.8-0.8,1.6c-0.5,0.8-1,1.5-1.6,2.1c-1.6,1.6-3.4,2.4-5.5,2.4
	s-3.8-0.6-5.2-1.7c-1.4-1.2-2.3-2.4-2.8-3.6l-15-36.6c-0.7-2-1-3.3-1-3.9c0-2.7,1.9-4.7,5.7-6.3c2.1-0.9,3.8-1.3,5.2-1.3
	c1.3,0,2.4,0.3,3.2,0.9c0.9,0.5,1.5,1.1,1.8,1.7c0.3,0.5,0.6,1.1,0.8,1.7c1.1,2.7,3.5,8.9,7.1,18.7l5.9-16.1
	c0.4-1.3,1.1-2.5,2.2-3.5c1.9-1.9,3.9-2.9,5.9-2.9c2,0,3.7,0.5,5.1,1.6c1.5,1.1,2.5,2.1,3,3.2l0.8,1.7c3.3,9.3,5.3,14.6,5.9,15.9
	l6.1-16.5c1.6-4.2,4-6.4,7.2-6.4C427,60.9,428.3,61.2,429.7,61.9z"/>
<path class="st0" d="M470.3,61.6c5.9,0,11.3,2.6,16.2,7.9c5,5.2,7.5,11.3,7.5,18.3c0,6.9-2.5,13-7.4,18.2
	c-4.9,5.2-10.2,7.8-15.8,7.8c-5.6,0-9.7-1.6-12-4.8c-0.5,3.3-3.4,4.9-8.6,4.9c-4.2,0-6.7-0.9-7.7-2.7c-0.5-1-0.8-1.9-0.9-2.6
	c-0.1-0.8-0.1-2-0.1-3.5V45.6c0-1.5,0-2.7,0.1-3.4c0.1-0.8,0.4-1.7,0.9-2.6c0.9-1.8,3.5-2.7,7.8-2.7c4.2,0,6.7,0.9,7.6,2.7
	c0.5,1,0.8,1.9,0.9,2.7c0.1,0.7,0.2,1.9,0.2,3.4v20.7C461.6,63.2,465.4,61.6,470.3,61.6z M461.5,93.7c1.7,1.8,3.7,2.7,6.2,2.7
	c2.5,0,4.5-0.9,6.3-2.7c1.7-1.8,2.6-3.8,2.6-6c0-2.2-0.8-4.2-2.4-6c-1.6-1.9-3.7-2.8-6.4-2.8c-2.7,0-4.8,0.9-6.4,2.8
	c-1.5,1.9-2.3,3.9-2.3,6.1C459.1,90,459.9,91.9,461.5,93.7z"/>
<path class="st0" d="M534.5,67c0.4-3.7,3-5.6,7.9-5.6c2.6,0,4.5,0.2,5.8,0.6c1.3,0.4,2.1,1.1,2.6,2.1c0.5,1,0.8,1.9,0.9,2.7
	c0.1,0.7,0.2,1.9,0.2,3.4v34.8c0,1.5-0.1,2.7-0.2,3.5c-0.1,0.7-0.3,1.6-0.8,2.6c-0.9,1.7-3.2,2.6-6.9,2.6c-3.6,0-6-0.4-7.3-1.3
	c-1.2-0.9-1.9-2.3-2.1-4c-2.5,3.5-6.6,5.3-12.3,5.3c-5.7,0-11-2.6-15.9-7.9c-4.9-5.2-7.4-11.3-7.4-18.2c0-7,2.5-13,7.4-18.2
	c5-5.2,10.4-7.9,16.3-7.9c2.3,0,4.3,0.4,6.2,1.2c1.9,0.8,3.2,1.6,3.9,2.3C533.4,65.7,534,66.4,534.5,67z M516.4,87.7
	c0,2.2,0.9,4.2,2.6,6c1.7,1.7,3.8,2.6,6.3,2.6c2.5,0,4.5-0.9,6.1-2.7c1.7-1.8,2.5-3.7,2.5-5.9c0-2.2-0.8-4.2-2.4-6.1
	c-1.5-1.9-3.6-2.8-6.3-2.8c-2.6,0-4.7,0.9-6.4,2.8C517.2,83.5,516.4,85.6,516.4,87.7z"/>
<path class="st0" d="M578.1,96.3c2.2,0,3.8,0.6,4.9,1.7c1.1,1.1,1.6,3.5,1.6,7c0,3.5-0.6,5.9-1.7,7.1c-1.1,1.1-2.8,1.7-4.9,1.7
	c-6.7,0-11.4-1.6-14.1-4.8c-2.7-3.3-4.1-8.6-4.1-16.1V45.3c0-1.5,0-2.7,0.1-3.4c0.1-0.8,0.4-1.7,0.9-2.7c0.9-1.7,3.5-2.6,7.8-2.6
	c4,0,6.6,0.9,7.6,2.8c0.5,0.9,0.8,1.8,0.9,2.6c0.1,0.7,0.2,1.9,0.2,3.4v47.8C577.2,95.3,577.5,96.3,578.1,96.3z M604,93.2
	c0,1.3,0.3,2.1,0.8,2.5c0.5,0.4,1.9,0.6,4.1,0.6c2.2,0,4,0.6,5.5,1.7c1.5,1.1,2.2,3.5,2.2,7c0,3.5-0.8,5.9-2.4,7.1
	c-1.5,1.1-3.7,1.7-6.5,1.7c-14.1,0-21.1-7-21.1-20.9l-0.1-47.5c0-1.5,0-2.7,0.1-3.4c0.1-0.8,0.5-1.7,1-2.7c1-1.7,3.6-2.6,7.8-2.6
	c4,0,6.6,0.9,7.6,2.8c0.7,1.5,1.1,3.5,1.1,6V93.2z"/>
<path class="st1" d="M197,138.7v9.6h13.5v2.2H197v10.4h-2.8v-24.5h17.9v2.2H197z"/>
<path class="st1" d="M258.9,136.4h2.8v24.5h-2.8V136.4z"/>
<path class="st1" d="M333.1,136.4v24.5h-2.3L314,141.1v19.9h-2.8v-24.5h2.3l16.8,19.9v-19.9H333.1z"/>
<path class="st1" d="M399.1,154.4h-14.6l-3.1,6.5h-2.9l11.9-24.5h2.7l11.9,24.5h-2.9L399.1,154.4z M398.1,152.3l-6.3-13.1l-6.3,13.1
	H398.1z"/>
<path class="st1" d="M472.4,136.4v24.5h-2.3l-16.8-19.9v19.9h-2.8v-24.5h2.3l16.8,19.9v-19.9H472.4z"/>
<path class="st1" d="M533.3,161.1c-2.6,0-4.9-0.5-7-1.6c-2.1-1.1-3.7-2.6-4.9-4.4c-1.2-1.9-1.8-4-1.8-6.4c0-2.4,0.6-4.5,1.8-6.4
	c1.2-1.9,2.8-3.4,4.9-4.5c2.1-1.1,4.4-1.6,7-1.6c1.9,0,3.7,0.3,5.4,0.9c1.6,0.6,3,1.5,4.2,2.7l-1.8,1.6c-2-1.9-4.6-2.9-7.7-2.9
	c-2.1,0-3.9,0.4-5.6,1.3c-1.7,0.9-3,2.1-4,3.6c-0.9,1.5-1.4,3.3-1.4,5.2s0.5,3.6,1.4,5.2c1,1.5,2.3,2.7,4,3.6
	c1.7,0.9,3.6,1.3,5.6,1.3c3.1,0,5.7-1,7.7-2.9l1.8,1.6c-1.1,1.2-2.6,2.1-4.2,2.7C537.1,160.8,535.3,161.1,533.3,161.1z"/>
<path class="st1" d="M608.4,158.7v2.2h-18.5v-24.5h17.9v2.2h-15.2v8.7h13.5v2.2h-13.5v9.1H608.4z"/>
<defs>
	<filter id="Adobe_OpacityMaskFilter" filterUnits="userSpaceOnUse" x="4.9" y="5.6" width="183.8" height="201.4">
		<feColorMatrix  type="matrix" values="1 0 0 0 0  0 1 0 0 0  0 0 1 0 0  0 0 0 1 0"/>
	</filter>
</defs>
<mask maskUnits="userSpaceOnUse" x="4.9" y="5.6" width="183.8" height="201.4" id="mask0_1_">
	<path class="st2" d="M94.7,164.2c36.1,0,65.3-29.3,65.3-65.3s-29.3-65.3-65.3-65.3S29.4,62.8,29.4,98.9S58.6,164.2,94.7,164.2z"/>
</mask>
<g class="st3">
	<path class="st4" d="M51.1,61.6l113.2,65.3L118.1,207l-18.5-10.7c0,0-12.2-4.8-18.5-10.7c-6.2-5.9-14-9-19.1-11
		c-5.1-2-11.6-4.7-19.1-12c-7.5-7.3-11.7-12.4-16.3-13.4c-4.7-1-21.8-7.6-21.8-7.6L51.1,61.6z"/>
	<path class="st5" d="M75.6,5.6l113.2,65.3L142.5,151L124,140.3c0,0-12.2-4.8-18.5-10.7c-6.2-5.9-14-9-19.1-11
		c-5.1-2-11.6-4.7-19.1-12C60,99.4,55.8,94.2,51.1,93.3c-4.7-1-21.8-7.6-21.8-7.6L75.6,5.6z"/>
	<path class="st6" d="M49.3,52.2c-13.3,12.4-20,28.1-20,47.2c0,12.7,3.3,24.2,10,34.3c6.8,10,15.1,17.6,24.9,22.9
		c9.8,5.1,20,7.6,30.4,7.6s20.5-2.4,30.2-7.2c9.8-4.9,18.1-12.5,24.9-22.7c6.8-10.3,10.2-22.1,10.2-35.3c0-19.1-6.6-34.7-19.7-47
		C127.2,39.8,112,33.6,94.9,33.6C77.8,33.6,62.6,39.8,49.3,52.2z M94.7,151.8c29.2,0,52.9-23.7,52.9-52.9S123.9,46,94.7,46
		S41.8,69.7,41.8,98.9S65.5,151.8,94.7,151.8z"/>
	<g>
		<path class="st4" d="M104,114.4c15.5,0,28-12.5,28-28s-12.5-28-28-28S76,71,76,86.4S88.6,114.4,104,114.4z"/>
	</g>
	<path class="st4" d="M66.7,92.7c1.7,0,3.1-1.4,3.1-3.1c0-1.7-1.4-3.1-3.1-3.1c-1.7,0-3.1,1.4-3.1,3.1C63.6,91.3,65,92.7,66.7,92.7z
		"/>
	<path class="st4" d="M64.4,81.8c0.4,0,0.8-0.3,0.8-0.8c0-0.4-0.3-0.8-0.8-0.8c-0.4,0-0.8,0.3-0.8,0.8
		C63.6,81.4,63.9,81.8,64.4,81.8z"/>
	<path class="st4" d="M51.9,84.9c0.4,0,0.8-0.3,0.8-0.8c0-0.4-0.3-0.8-0.8-0.8c-0.4,0-0.8,0.3-0.8,0.8
		C51.1,84.5,51.5,84.9,51.9,84.9z"/>
	<path class="st4" d="M58.9,86.4c0.9,0,1.6-0.7,1.6-1.6c0-0.9-0.7-1.6-1.6-1.6c-0.9,0-1.6,0.7-1.6,1.6
		C57.4,85.8,58.1,86.4,58.9,86.4z"/>
</g>
</svg>
