<svg width="226" height="56" viewBox="0 0 226 56" fill="none" xmlns="http://www.w3.org/2000/svg">
<path d="M28.4168 53.4536C42.6837 53.4536 54.2492 42.0576 54.2492 27.9999C54.2492 13.9422 42.6837 2.54614 28.4168 2.54614C14.15 2.54614 2.58447 13.9422 2.58447 27.9999C2.58447 42.0576 14.15 53.4536 28.4168 53.4536Z" fill="#33A9FF"/>
<path d="M42.1985 51.9227C29.8462 58.9489 14.8121 56.0789 8.61377 45.5089C8.61377 45.5089 8.88017 43.9164 12.8585 43.0939C13.7287 42.9102 17.0322 42.6652 19.3854 39.9527C19.856 39.4102 20.2557 37.4677 24.4826 36.6889C28.159 36.0064 27.9015 36.6714 30.53 33.539C32.3682 31.3515 32.8388 29.9602 36.0446 29.3827C38.3623 28.9715 39.8897 29.2865 41.4526 27.0727C42.5093 25.5852 43.3618 23.6865 47.1448 23.2227C51.7536 22.654 53.3609 20.064 53.3609 20.064C59.5504 30.6252 54.5597 44.8964 42.1985 51.9227Z" fill="white"/>
<path d="M35.6525 36.4328C37.7337 35.2488 39.1981 33.909 38.9234 33.4403C38.6488 32.9716 36.7391 33.5514 34.658 34.7354C32.5768 35.9194 31.1124 37.2591 31.3871 37.7278C31.6617 38.1965 33.5714 37.6167 35.6525 36.4328Z" fill="#C7D8EF"/>
<path d="M56.3002 22.5662C53.7338 9.70375 42.2252 0 28.4165 0C12.7253 0 0 12.5387 0 28C0 36.2687 3.64086 43.7062 9.43073 48.825C14.4658 53.2875 21.117 56 28.4165 56C44.1077 56 56.833 43.4613 56.833 28C56.833 26.145 56.6465 24.325 56.3002 22.5662ZM28.4165 53.2C22.1738 53.2 16.4461 50.995 12.006 47.3288C6.40259 42.7088 2.84165 35.7612 2.84165 28C2.84165 14.0787 14.2882 2.8 28.4165 2.8C41.1773 2.8 51.7536 12.005 53.6806 24.045C53.8848 25.3312 53.9914 26.6525 53.9914 28C53.9914 41.9212 42.5448 53.2 28.4165 53.2Z" fill="white"/>
<path d="M20.8328 35.4286C21.5734 35.4286 22.1737 34.8371 22.1737 34.1074C22.1737 33.3777 21.5734 32.7861 20.8328 32.7861C20.0923 32.7861 19.4919 33.3777 19.4919 34.1074C19.4919 34.8371 20.0923 35.4286 20.8328 35.4286Z" fill="white"/>
<path d="M21.9162 34.4137C21.6143 35.0787 20.8239 35.3762 20.149 35.0787C19.9359 34.9825 19.7583 34.8425 19.6251 34.6675C19.7583 34.9387 19.9803 35.1662 20.2823 35.3062C20.9571 35.6037 21.7475 35.3062 22.0494 34.6412C22.2536 34.1862 22.1826 33.6787 21.8984 33.3025C22.0672 33.6437 22.0849 34.0462 21.9162 34.4137Z" fill="#C7D8EF"/>
<path d="M19.8915 39.4014C20.2348 39.4014 20.5131 39.1272 20.5131 38.7889C20.5131 38.4506 20.2348 38.1764 19.8915 38.1764C19.5482 38.1764 19.2699 38.4506 19.2699 38.7889C19.2699 39.1272 19.5482 39.4014 19.8915 39.4014Z" fill="white"/>
<path d="M20.3984 38.9379C20.2563 39.2441 19.8833 39.3841 19.5725 39.2354C19.4748 39.1916 19.3949 39.1216 19.3328 39.0429C19.3949 39.1741 19.4926 39.2791 19.6347 39.3404C19.9455 39.4804 20.3185 39.3491 20.4605 39.0429C20.5582 38.8329 20.5316 38.5966 20.3984 38.4216C20.4694 38.5791 20.4783 38.7716 20.3984 38.9379Z" fill="#C7D8EF"/>
<path d="M13.827 41.8515C14.1704 41.8515 14.4487 41.5772 14.4487 41.239C14.4487 40.9007 14.1704 40.6265 13.827 40.6265C13.4837 40.6265 13.2054 40.9007 13.2054 41.239C13.2054 41.5772 13.4837 41.8515 13.827 41.8515Z" fill="white"/>
<path d="M14.3424 41.309C14.2448 41.6328 13.8984 41.8253 13.5699 41.729C13.4633 41.7028 13.3745 41.6415 13.3035 41.5715C13.3834 41.6853 13.4988 41.7815 13.6498 41.8253C13.9784 41.9215 14.3247 41.729 14.4224 41.4053C14.4845 41.1865 14.4224 40.9503 14.2625 40.8015C14.3602 40.9503 14.3957 41.134 14.3424 41.309Z" fill="#C7D8EF"/>
<path d="M10.3102 39.7077C10.4818 39.7077 10.621 39.5706 10.621 39.4015C10.621 39.2323 10.4818 39.0952 10.3102 39.0952C10.1385 39.0952 9.99939 39.2323 9.99939 39.4015C9.99939 39.5706 10.1385 39.7077 10.3102 39.7077Z" fill="white"/>
<path d="M10.5678 39.4452C10.5145 39.6114 10.3458 39.6989 10.177 39.6464C10.1237 39.6289 10.0793 39.6027 10.0438 39.5677C10.0793 39.6289 10.1415 39.6727 10.2125 39.6989C10.3813 39.7514 10.55 39.6552 10.6033 39.4977C10.6388 39.3839 10.6033 39.2702 10.5322 39.1914C10.5766 39.2614 10.5944 39.3489 10.5678 39.4452Z" fill="#C7D8EF"/>
<path d="M16.8279 37.5462C17.1712 37.5462 17.4495 37.2719 17.4495 36.9337C17.4495 36.5954 17.1712 36.3212 16.8279 36.3212C16.4846 36.3212 16.2063 36.5954 16.2063 36.9337C16.2063 37.2719 16.4846 37.5462 16.8279 37.5462Z" fill="white"/>
<path d="M17.3526 36.995C17.2638 37.3275 16.9263 37.52 16.5889 37.4325C16.4823 37.4063 16.3935 37.3538 16.3136 37.2838C16.3935 37.3975 16.5178 37.485 16.6688 37.5288C17.0062 37.6163 17.3437 37.415 17.4325 37.0913C17.4946 36.8638 17.4147 36.6363 17.2549 36.4875C17.3614 36.6275 17.397 36.8113 17.3526 36.995Z" fill="#C7D8EF"/>
<path d="M12.1926 38.3424C12.1482 38.3424 12.1127 38.3249 12.0772 38.2899C12.0239 38.2287 12.0417 38.1412 12.1038 38.0974L19.0392 32.6637C19.1014 32.6112 19.1902 32.6287 19.2346 32.6899C19.2879 32.7512 19.2701 32.8387 19.208 32.8824L12.2726 38.3162C12.2548 38.3337 12.2193 38.3424 12.1926 38.3424Z" fill="white"/>
<path d="M10.585 35.2189C10.5406 35.2189 10.5051 35.2014 10.4695 35.1664C10.4163 35.1051 10.434 35.0176 10.4962 34.9739L17.4316 29.5401C17.4937 29.4876 17.5825 29.5051 17.6269 29.5664C17.6802 29.6276 17.6625 29.7151 17.6003 29.7589L10.6649 35.1926C10.6471 35.2101 10.6205 35.2189 10.585 35.2189Z" fill="white"/>
<path d="M15.6107 33.4511C15.593 33.4511 15.5663 33.4423 15.5575 33.4248C15.5308 33.3986 15.5397 33.3548 15.5663 33.3286L18.1594 31.2986C18.186 31.2723 18.2304 31.2811 18.257 31.3073C18.2837 31.3336 18.2748 31.3773 18.2482 31.4036L15.6551 33.4336C15.6374 33.4423 15.6285 33.4511 15.6107 33.4511Z" fill="white"/>
<path d="M14.9816 40.5386C14.9638 40.5386 14.9372 40.5298 14.9283 40.5123C14.9017 40.4861 14.9106 40.4423 14.9372 40.4161L17.5302 38.3861C17.5568 38.3598 17.6012 38.3686 17.6279 38.3948C17.6545 38.4211 17.6456 38.4648 17.619 38.4911L15.026 40.5211C15.0171 40.5386 14.9994 40.5386 14.9816 40.5386Z" fill="white"/>
<path d="M14.7411 29.7498C14.7234 29.7498 14.6967 29.7411 14.6878 29.7236C14.6612 29.6973 14.6701 29.6536 14.6967 29.6273L16.6326 28.1048C16.6592 28.0786 16.7036 28.0873 16.7303 28.1136C16.7569 28.1398 16.748 28.1836 16.7214 28.2098L14.7855 29.7323C14.7678 29.7498 14.7589 29.7498 14.7411 29.7498Z" fill="white"/>
<path d="M27.6432 33.7486C33.1361 33.7486 37.5889 29.3609 37.5889 23.9486C37.5889 18.5362 33.1361 14.1486 27.6432 14.1486C22.1503 14.1486 17.6974 18.5362 17.6974 23.9486C17.6974 29.3609 22.1503 33.7486 27.6432 33.7486Z" fill="white"/>
<path d="M27.6432 33.7486C33.1361 33.7486 37.5889 29.3609 37.5889 23.9486C37.5889 18.5362 33.1361 14.1486 27.6432 14.1486C22.1503 14.1486 17.6974 18.5362 17.6974 23.9486C17.6974 29.3609 22.1503 33.7486 27.6432 33.7486Z" fill="white"/>
<path d="M37.5898 23.9486C37.5898 29.3649 33.1408 33.7486 27.644 33.7486C23.7367 33.7486 20.3623 31.5349 18.7372 28.3061C20.5576 30.3886 23.2572 31.7099 26.2676 31.7099C31.7644 31.7099 36.2133 27.3261 36.2133 21.9099C36.2133 20.3436 35.8404 18.8649 35.1744 17.5524C36.6751 19.2674 37.5898 21.4986 37.5898 23.9486Z" fill="#C7D8EF"/>
<path d="M67.0626 38.1674C66.4232 37.3887 66.1035 36.6974 66.1035 36.0762C66.1035 35.4549 66.6274 34.6412 67.6842 33.6262C68.2969 33.0487 68.954 32.7512 69.6378 32.7512C70.3216 32.7512 71.2806 33.3549 72.515 34.5712C72.8613 34.9824 73.3497 35.3762 73.9891 35.7524C74.6285 36.1287 75.2146 36.3124 75.7562 36.3124C78.0384 36.3124 79.184 35.3937 79.184 33.5474C79.184 32.9874 78.8732 32.5237 78.2427 32.1474C77.6122 31.7712 76.8396 31.4999 75.8983 31.3337C74.9659 31.1674 73.9536 30.8962 72.8791 30.5199C71.7957 30.1437 70.7922 29.7062 69.8598 29.1899C68.9274 28.6825 68.1459 27.8775 67.5155 26.775C66.885 25.6725 66.5742 24.3512 66.5742 22.7937C66.5742 20.6675 67.3823 18.8037 68.9896 17.22C70.5969 15.6362 72.7903 14.84 75.5698 14.84C77.0439 14.84 78.3936 15.0237 79.6102 15.4C80.8268 15.7762 81.6704 16.1612 82.1322 16.5462L83.0557 17.2375C83.8194 17.9375 84.2013 18.5325 84.2013 19.0137C84.2013 19.495 83.9082 20.16 83.3133 21.0087C82.4785 22.2162 81.6171 22.8287 80.7291 22.8287C80.2141 22.8287 79.5747 22.5837 78.811 22.1025C78.74 22.05 78.5979 21.9362 78.3848 21.735C78.1716 21.5425 77.9852 21.385 77.8164 21.2625C77.3014 20.9475 76.6443 20.79 75.845 20.79C75.0458 20.79 74.3798 20.9737 73.8559 21.35C73.3231 21.7262 73.0656 22.2425 73.0656 22.9162C73.0656 23.5812 73.3764 24.1237 74.0069 24.535C74.6373 24.9462 75.4099 25.2262 76.3512 25.3662C77.2836 25.515 78.3048 25.7337 79.4149 26.04C80.5249 26.3462 81.5372 26.7137 82.4785 27.1512C83.4109 27.5887 84.1924 28.3412 84.8229 29.4174C85.4534 30.4937 85.7642 31.8237 85.7642 33.3987C85.7642 34.9737 85.4445 36.3562 84.8051 37.5549C84.1657 38.7537 83.331 39.6812 82.3009 40.3374C80.3118 41.6237 78.1805 42.2624 75.925 42.2624C74.7705 42.2624 73.6783 42.1224 72.6482 41.8424C71.6181 41.5624 70.7834 41.2212 70.144 40.8099C68.8386 40.0312 67.9328 39.2874 67.4178 38.5612L67.0626 38.1674Z" fill="#1E2744"/>
<path d="M98.952 22.7678C101.412 22.7678 103.454 23.6953 105.088 25.5503C106.722 27.4053 107.539 29.6628 107.539 32.3228V38.7191C107.539 39.2791 107.521 39.6903 107.486 39.9703C107.45 40.2503 107.344 40.5566 107.175 40.8978C106.829 41.5541 105.87 41.8778 104.298 41.8778C102.548 41.8778 101.545 41.4316 101.279 40.5303C101.128 40.1191 101.057 39.4978 101.057 38.6753V32.2878C101.057 31.2991 100.764 30.5203 100.186 29.9603C99.6091 29.4003 98.8365 29.1291 97.8597 29.1291C96.8918 29.1291 96.1014 29.4178 95.4976 30.0041C94.8937 30.5816 94.5918 31.3516 94.5918 32.2966V38.7278C94.5918 39.2878 94.574 39.6991 94.5385 39.9791C94.503 40.2591 94.3875 40.5653 94.1922 40.9066C93.8725 41.5628 92.9223 41.8866 91.3505 41.8866C89.8054 41.8866 88.8552 41.5628 88.5089 40.9066C88.3401 40.5391 88.2336 40.2241 88.1981 39.9441C88.1625 39.6641 88.1448 39.2441 88.1448 38.6928V25.8303C88.1448 25.2966 88.1625 24.8941 88.1981 24.6141C88.2336 24.3341 88.349 24.0278 88.5444 23.6866C88.8907 23.0828 89.832 22.7766 91.386 22.7766C92.8868 22.7766 93.8103 23.0566 94.1478 23.6078C94.3964 24.0191 94.5207 24.5178 94.5207 25.0953C94.6184 24.9291 94.8404 24.6841 95.1868 24.3691C95.5331 24.0541 95.8617 23.8003 96.1813 23.6078C97.0161 23.0478 97.9396 22.7678 98.952 22.7678Z" fill="#1E2744"/>
<path d="M113.026 25.1653C115.086 23.2753 117.449 22.3303 120.104 22.3303C122.759 22.3303 125.103 23.2666 127.146 25.1478C129.188 27.0203 130.209 29.4178 130.209 32.3228C130.209 34.3353 129.677 36.1203 128.629 37.6778C127.572 39.2353 126.284 40.3903 124.775 41.1253C123.265 41.8603 121.693 42.2366 120.077 42.2366C118.452 42.2366 116.88 41.8428 115.362 41.0553C113.834 40.2678 112.556 39.1041 111.508 37.5641C110.46 36.0241 109.945 34.2916 109.945 32.3491C109.936 29.4528 110.966 27.0553 113.026 25.1653ZM117.635 34.9566C118.425 35.5516 119.225 35.8491 120.033 35.8491C120.841 35.8491 121.658 35.5428 122.466 34.9391C123.274 34.3353 123.682 33.4341 123.682 32.2528C123.682 31.0628 123.301 30.1791 122.537 29.6016C121.773 29.0241 120.947 28.7266 120.068 28.7266C119.18 28.7266 118.363 29.0328 117.6 29.6366C116.836 30.2403 116.454 31.1328 116.454 32.3053C116.454 33.4778 116.854 34.3616 117.635 34.9566Z" fill="#1E2744"/>
<path d="M156.716 22.9162C158.288 23.5987 159.078 24.4299 159.078 25.4187C159.078 25.8299 158.883 26.4862 158.492 27.3962C158.101 28.3062 157.764 29.0937 157.497 29.7762L153.439 39.5149C153.066 40.5824 152.454 41.3349 151.592 41.7636C151.219 41.9299 150.757 42.0174 150.189 42.0174C149.621 42.0174 149.079 41.8074 148.546 41.3786C148.013 40.9586 147.667 40.5211 147.498 40.0924L147.205 39.4711C147.01 38.9899 146.282 37.0999 145.03 33.8011C144.781 34.3786 144.417 35.3324 143.946 36.6536C143.467 37.9749 143.156 38.7974 143.023 39.1211C142.89 39.4449 142.801 39.6636 142.765 39.7774C142.73 39.8824 142.623 40.0836 142.454 40.3811C142.286 40.6699 142.081 40.9236 141.868 41.1424C141.282 41.7199 140.598 42.0174 139.844 42.0174C139.08 42.0174 138.441 41.8074 137.926 41.3786C137.41 40.9586 137.064 40.5211 136.895 40.0924L131.328 26.7224C131.079 25.9962 130.955 25.5237 130.955 25.3049C130.955 24.3337 131.656 23.5724 133.059 23.0124C133.85 22.6974 134.48 22.5399 134.977 22.5399C135.466 22.5399 135.865 22.6449 136.176 22.8462C136.487 23.0562 136.7 23.2574 136.824 23.4674C136.949 23.6774 137.046 23.8874 137.117 24.1062C137.535 25.0774 138.405 27.3524 139.737 30.9312L141.913 25.0424C142.064 24.5612 142.33 24.1324 142.721 23.7737C143.431 23.0737 144.159 22.7237 144.896 22.7237C145.634 22.7237 146.264 22.9162 146.797 23.3012C147.321 23.6862 147.685 24.0799 147.88 24.4649L148.173 25.0862C149.399 28.4812 150.127 30.4149 150.349 30.8962L152.596 24.8674C153.182 23.3187 154.07 22.5399 155.251 22.5399C155.704 22.5487 156.192 22.6712 156.716 22.9162Z" fill="#1E2744"/>
<path d="M171.75 22.8025C173.934 22.8025 175.95 23.7562 177.779 25.6725C179.609 27.5887 180.523 29.8112 180.523 32.34C180.523 34.8687 179.618 37.0825 177.797 38.99C175.977 40.8887 174.023 41.8425 171.936 41.8425C169.849 41.8425 168.358 41.265 167.478 40.1012C167.283 41.2912 166.226 41.8775 164.308 41.8775C162.763 41.8775 161.813 41.5537 161.467 40.8975C161.298 40.53 161.191 40.215 161.156 39.935C161.12 39.655 161.103 39.235 161.103 38.6837V16.9925C161.103 16.4325 161.12 16.0212 161.156 15.7412C161.191 15.4612 161.298 15.155 161.467 14.8137C161.813 14.1575 162.772 13.8337 164.344 13.8337C165.889 13.8337 166.83 14.1575 167.15 14.8137C167.345 15.1812 167.461 15.4962 167.496 15.7762C167.532 16.0562 167.55 16.4762 167.55 17.0275V24.5875C168.535 23.3975 169.929 22.8025 171.75 22.8025ZM168.526 34.5362C169.13 35.1925 169.885 35.5162 170.791 35.5162C171.697 35.5162 172.478 35.1925 173.117 34.5362C173.757 33.88 174.076 33.1537 174.076 32.3575C174.076 31.5612 173.783 30.8262 173.188 30.1612C172.602 29.4962 171.812 29.1637 170.826 29.1637C169.841 29.1637 169.059 29.505 168.482 30.1787C167.905 30.8612 167.612 31.5875 167.612 32.375C167.621 33.1625 167.923 33.8887 168.526 34.5362Z" fill="#1E2744"/>
<path d="M195.531 24.8065C195.682 23.4502 196.65 22.7765 198.444 22.7765C199.403 22.7765 200.114 22.8465 200.584 22.9952C201.055 23.144 201.375 23.3977 201.561 23.7565C201.748 24.124 201.854 24.439 201.89 24.719C201.925 24.999 201.943 25.419 201.943 25.9702V38.6752C201.943 39.2352 201.925 39.6465 201.89 39.9265C201.854 40.2065 201.747 40.5215 201.579 40.889C201.232 41.519 200.389 41.834 199.057 41.834C197.716 41.834 196.819 41.6677 196.366 41.344C195.913 41.0202 195.647 40.539 195.576 39.909C194.67 41.1952 193.152 41.834 191.02 41.834C188.898 41.834 186.918 40.8802 185.106 38.964C183.286 37.0477 182.38 34.8252 182.38 32.2965C182.38 29.7677 183.295 27.554 185.124 25.6465C186.953 23.7477 188.96 22.794 191.153 22.794C191.988 22.794 192.752 22.9427 193.436 23.2315C194.119 23.5202 194.599 23.7915 194.874 24.0452C195.141 24.3165 195.363 24.5615 195.531 24.8065ZM188.818 32.3577C188.818 33.154 189.138 33.8802 189.777 34.519C190.416 35.1577 191.189 35.4815 192.104 35.4815C193.009 35.4815 193.764 35.1577 194.368 34.5015C194.972 33.8452 195.274 33.1277 195.274 32.3402C195.274 31.5527 194.981 30.8177 194.404 30.144C193.826 29.4702 193.054 29.129 192.077 29.129C191.109 29.129 190.319 29.4702 189.715 30.144C189.12 30.8177 188.818 31.5615 188.818 32.3577Z" fill="#1E2744"/>
<path d="M211.676 35.4814C212.484 35.4814 213.087 35.6914 213.478 36.1026C213.869 36.5139 214.064 37.3626 214.064 38.6489C214.064 39.9351 213.851 40.7839 213.434 41.2126C213.016 41.6326 212.413 41.8514 211.631 41.8514C209.145 41.8514 207.404 41.2651 206.401 40.0926C205.388 38.9201 204.891 36.9601 204.891 34.2301V16.8876C204.891 16.3276 204.909 15.9164 204.944 15.6364C204.98 15.3564 205.086 15.0414 205.255 14.6739C205.602 14.0439 206.561 13.7289 208.132 13.7289C209.633 13.7289 210.566 14.0701 210.938 14.7439C211.134 15.0851 211.249 15.3914 211.285 15.6714C211.32 15.9514 211.338 16.3714 211.338 16.9226V34.3614C211.347 35.1051 211.454 35.4814 211.676 35.4814ZM221.595 35.2626C221.79 35.4114 222.296 35.4814 223.104 35.4814C223.912 35.4814 224.587 35.6914 225.129 36.1026C225.671 36.5139 225.937 37.3626 225.937 38.6489C225.937 39.9351 225.644 40.7839 225.067 41.2126C224.49 41.6326 223.682 41.8514 222.651 41.8514C217.439 41.8514 214.837 39.3051 214.837 34.2214L214.801 16.8964C214.801 16.3364 214.819 15.9251 214.855 15.6451C214.89 15.3651 215.006 15.0501 215.201 14.6826C215.574 14.0526 216.524 13.7376 218.078 13.7376C219.579 13.7376 220.511 14.0789 220.884 14.7526C221.151 15.2864 221.293 16.0126 221.293 16.9314V34.3701C221.302 34.8164 221.399 35.1226 221.595 35.2626Z" fill="#1E2744"/>
</svg>
